<mxfile host="app.diagrams.net" modified="2024-06-15T15:55:47.331Z" agent="Mozilla/5.0 (Windows NT 10.0; Win64; x64) AppleWebKit/537.36 (KHTML, like Gecko) Chrome/125.0.0.0 Safari/537.36" version="24.5.4" etag="VivS-uu2LXpcw5Hkcyfi" type="github">
  <diagram name="Page-1" id="eub0KuMl8RxEZ25sRm7e">
    <mxGraphModel>
      <root>
        <mxCell id="0" />
        <mxCell id="1" parent="0" />
      </root>
    </mxGraphModel>
  </diagram>
</mxfile>
